<svg enable-background="new 0 0 58 58" viewBox="0 0 58 58" xmlns="http://www.w3.org/2000/svg"><path d="m48 4v4h-7v-4h-24v4h-7v-4h-8v11h54v-11z" fill="#8c738b"/><path d="m10 15h-8v43h54v-43h-8-7-24z" fill="#F1E6F1"/><path d="m39 22h-2-7-2-7-2-9v9 2 7 2 9h9 2 7 2 7 2 9v-9-2-7-2-9zm-9 2h7v7h-7zm7 16h-7v-7h7zm-16-7h7v7h-7zm0-9h7v7h-7zm-9 0h7v7h-7zm0 9h7v7h-7zm7 16h-7v-7h7zm9 0h-7v-7h7zm9 0h-7v-7h7zm9 0h-7v-7h7zm0-9h-7v-7h7zm-7-9v-7h7v7z" fill="#DBC5DA"/><path d="m10 0h7v8h-7z" fill="#28384c"/><path d="m41 0h7v8h-7z" fill="#28384c"/><path d="m30 33h7v7h-7z" fill="#7494ab"/></svg>