<svg enable-background="new 0 0 512 512" viewBox="0 0 512 512" xmlns="http://www.w3.org/2000/svg"><path d="m493.268 488.324h-474.536c-10.345 0-18.732-8.386-18.732-18.731v-284.791c0-10.345 8.387-18.732 18.732-18.732h474.537c10.345 0 18.732 8.387 18.732 18.732v284.791c-.001 10.345-8.388 18.731-18.733 18.731z" fill="#F1E6F1"/><path d="m493.268 166.07h-237.268v322.254h237.268c10.345 0 18.732-8.387 18.732-18.732v-284.79c0-10.345-8.387-18.732-18.732-18.732z" fill="#DBC5DA"/><path d="m512 327.087h-237.088v-161.017h-37.464v161.017h-237.448v37.463h237.448v123.774h37.464v-123.774h237.088z" fill="#DBC5DA"/><path d="m274.912 327.087v-161.017h-18.912v322.254h18.912v-123.774h237.088v-37.463z" fill="#8C738B"/><path d="m512 203.534h-512v-161.127c0-10.345 8.387-18.732 18.732-18.732h474.537c10.345 0 18.732 8.387 18.732 18.732v161.127z" fill="#8C738B"/><path d="m512 42.407c0-10.345-8.387-18.732-18.732-18.732h-237.268v179.858h256z" fill="#6b596a"/></svg>